<svg width="20" height="21" viewBox="0 0 20 21" fill="none" xmlns="http://www.w3.org/2000/svg">
<ellipse cx="10" cy="10.5523" rx="10" ry="9.97512" fill="#0066FF"/>
<path d="M7.48922 15.4273C7.50512 15.1956 7.53831 14.9645 7.5881 14.7369C7.63167 14.5334 7.76374 13.9574 7.95736 13.1228L7.9622 13.1021L8.22981 11.9515C8.28444 11.717 8.32662 11.5349 8.35498 11.4742C8.2207 11.1646 8.15376 10.83 8.15859 10.4927C8.15859 9.57042 8.68136 8.85581 9.35903 8.85581C9.60797 8.85167 9.84585 8.95928 10.0104 9.14966C10.175 9.34003 10.2511 9.59318 10.2193 9.83668C10.2193 10.1491 10.1605 10.3871 9.90532 11.2404C9.8659 11.3713 9.82787 11.5026 9.79122 11.6342C9.75596 11.7639 9.72553 11.8812 9.69994 11.9943C9.63356 12.2606 9.69441 12.5441 9.86383 12.7565C9.94598 12.8608 10.0521 12.9439 10.1731 12.9987C10.2942 13.0536 10.4267 13.0786 10.5595 13.0717C11.5912 13.0717 12.3574 11.7025 12.3574 9.93462C12.3574 8.57576 11.4653 7.67629 9.98415 7.67629C9.61336 7.66254 9.24375 7.72569 8.89869 7.86176C8.55363 7.99782 8.24063 8.20384 7.97949 8.46677C7.71275 8.73547 7.50231 9.05445 7.36044 9.40511C7.21857 9.75577 7.1481 10.1311 7.15315 10.5092C7.13596 10.9167 7.2611 11.3175 7.5072 11.6432C7.63236 11.7398 7.68007 11.9074 7.62821 12.0502C7.59986 12.1661 7.5314 12.4309 7.50581 12.5192C7.49857 12.5624 7.48137 12.6033 7.45557 12.6388C7.42977 12.6742 7.39608 12.7032 7.35714 12.7234C7.31934 12.7432 7.27735 12.7537 7.23465 12.7541C7.19196 12.7544 7.14979 12.7446 7.11166 12.7255C6.30952 12.3951 5.86973 11.499 5.86973 10.3526C5.86973 8.29364 7.59225 6.5009 10.1515 6.5009C12.3193 6.5009 13.9416 8.1074 13.9416 10.0464C13.9416 12.4827 12.6056 14.2568 10.6985 14.2568C10.4272 14.2646 10.1579 14.2089 9.91215 14.094C9.66642 13.9791 9.45116 13.8083 9.28366 13.5953L9.25393 13.7174L9.11079 14.3051L9.1094 14.3106C9.00844 14.7245 8.93791 15.0121 8.91025 15.1197C8.83695 15.3646 8.74429 15.6046 8.63365 15.8371C10.0096 16.1642 11.4589 15.9531 12.6836 15.2472C13.9084 14.5414 14.8156 13.3943 15.2187 12.0419C15.6218 10.6894 15.4903 9.23431 14.8511 7.97561C14.212 6.71692 13.1137 5.75026 11.7821 5.27433C10.4505 4.7984 8.98677 4.84935 7.69168 5.41671C6.39658 5.98407 5.36856 7.02473 4.8189 8.32481C4.26924 9.62488 4.2397 11.0856 4.73635 12.4067C5.233 13.7279 6.21812 14.8083 7.48922 15.4273ZM9.915 17.3649C6.09585 17.3649 3 14.2768 3 10.4671C3 6.65748 6.09585 3.56934 9.915 3.56934C13.7342 3.56934 16.83 6.65748 16.83 10.4671C16.83 14.2768 13.7342 17.3649 9.915 17.3649Z" fill="white"/>
</svg>
