<svg width="20" height="21" viewBox="0 0 20 21" fill="none" xmlns="http://www.w3.org/2000/svg">
<ellipse cx="10" cy="10.5523" rx="10" ry="9.97512" fill="#0066FF"/>
<path d="M15.3333 5.50455C14.7221 4.8887 13.9941 4.40041 13.1918 4.06817C12.3894 3.73592 11.5287 3.56636 10.66 3.56938C7.02 3.56938 4.05333 6.52866 4.05333 10.1596C4.05333 11.3234 4.36 12.4539 4.93333 13.4514L4 16.8695L7.5 15.9518C8.46667 16.4772 9.55333 16.7565 10.66 16.7565C14.3 16.7565 17.2667 13.7972 17.2667 10.1663C17.2667 8.40399 16.58 6.74812 15.3333 5.50455ZM10.66 15.6393C9.67333 15.6393 8.70667 15.3733 7.86 14.8745L7.66 14.7548L5.58 15.3001L6.13333 13.2785L6 13.0723C5.45183 12.1992 5.16076 11.1899 5.16 10.1596C5.16 7.14047 7.62667 4.67994 10.6533 4.67994C12.12 4.67994 13.5 5.25185 14.5333 6.28926C15.045 6.7973 15.4505 7.40159 15.7263 8.06711C16.0021 8.73262 16.1427 9.44613 16.14 10.1663C16.1533 13.1854 13.6867 15.6393 10.66 15.6393ZM13.6733 11.5428C13.5067 11.463 12.6933 11.064 12.5467 11.0042C12.3933 10.951 12.2867 10.9244 12.1733 11.084C12.06 11.2502 11.7467 11.6226 11.6533 11.729C11.56 11.8421 11.46 11.8554 11.2933 11.7689C11.1267 11.6891 10.5933 11.5096 9.96667 10.951C9.47333 10.5121 9.14667 9.97341 9.04667 9.80715C8.95333 9.6409 9.03333 9.55445 9.12 9.468C9.19333 9.39485 9.28667 9.27515 9.36667 9.18205C9.44667 9.08894 9.48 9.01579 9.53333 8.90939C9.58667 8.79634 9.56 8.70324 9.52 8.62344C9.48 8.54364 9.14667 7.73233 9.01333 7.39982C8.88 7.08062 8.74 7.12052 8.64 7.11387H8.32C8.20667 7.11387 8.03333 7.15377 7.88 7.32002C7.73333 7.48627 7.30667 7.88528 7.30667 8.69659C7.30667 9.5079 7.9 10.2926 7.98 10.399C8.06 10.5121 9.14667 12.1746 10.8 12.8861C11.1933 13.059 11.5 13.1588 11.74 13.2319C12.1333 13.3583 12.4933 13.3383 12.78 13.2984C13.1 13.2519 13.76 12.8994 13.8933 12.5137C14.0333 12.128 14.0333 11.8022 13.9867 11.729C13.94 11.6559 13.84 11.6226 13.6733 11.5428Z" fill="white"/>
</svg>
