<svg width="20" height="21" viewBox="0 0 20 21" fill="none" xmlns="http://www.w3.org/2000/svg">
<ellipse cx="10" cy="10.5523" rx="10" ry="9.97512" fill="#0066FF"/>
<path d="M16.0817 14.6478H14.5899C14.0255 14.6478 13.8555 14.1913 12.8438 13.1802C11.9596 12.3292 11.5862 12.2234 11.3625 12.2234C11.0532 12.2234 10.9688 12.3083 10.9688 12.7335V14.0737C10.9688 14.4362 10.8511 14.6484 9.90281 14.6484C8.98284 14.5867 8.09072 14.3076 7.29993 13.8341C6.50913 13.3606 5.8423 12.7063 5.35434 11.925C4.19574 10.4849 3.38958 8.79464 3 6.98873C3 6.76536 3.08502 6.5629 3.51142 6.5629H5.0025C5.38574 6.5629 5.52373 6.73336 5.67414 7.12719C6.3981 9.25503 7.63348 11.106 8.13509 11.106C8.32736 11.106 8.41107 11.021 8.41107 10.5423V8.35047C8.34763 7.35055 7.81594 7.2663 7.81594 6.90448C7.82267 6.80902 7.86639 6.71994 7.93783 6.65616C8.00926 6.59238 8.10278 6.55892 8.19852 6.5629H10.5424C10.8629 6.5629 10.9688 6.72226 10.9688 7.10498V10.0636C10.9688 10.383 11.1061 10.4888 11.2029 10.4888C11.3952 10.4888 11.543 10.383 11.8955 10.0316C12.6511 9.11134 13.2684 8.08607 13.728 6.98807C13.775 6.85625 13.8639 6.7434 13.9812 6.66675C14.0984 6.59011 14.2376 6.55386 14.3774 6.56355H15.8691C16.3164 6.56355 16.4113 6.78692 16.3164 7.10564C15.7739 8.31939 15.1025 9.47154 14.3139 10.5423C14.1531 10.7872 14.089 10.9146 14.3139 11.202C14.4617 11.4253 14.9849 11.8616 15.3361 12.2763C15.8475 12.7858 16.272 13.3749 16.5931 14.0201C16.7212 14.4355 16.5074 14.6478 16.0817 14.6478Z" fill="white"/>
</svg>
