<svg width="20" height="21" viewBox="0 0 20 21" fill="none" xmlns="http://www.w3.org/2000/svg">
<ellipse cx="10" cy="10.5523" rx="10" ry="9.97512" fill="#0066FF"/>
<path d="M10.4076 10.6689C8.73655 10.6689 7.34769 9.28472 7.34769 7.64678C7.34769 5.9522 8.73655 4.56738 10.4082 4.56738C12.1365 4.56738 13.468 5.95161 13.468 7.64678C13.465 8.45103 13.1421 9.22119 12.5701 9.788C11.9981 10.3548 11.2239 10.6719 10.4176 10.6695L10.4076 10.6689ZM10.4076 6.34752C9.70012 6.34752 9.16184 6.94051 9.16184 7.64737C9.16184 8.35305 9.70012 8.88999 10.4082 8.88999C11.1446 8.88999 11.6545 8.35305 11.6545 7.64737C11.655 6.93992 11.1446 6.34752 10.4076 6.34752ZM11.6261 13.1837L13.355 14.8505C13.6952 15.2169 13.6952 15.7539 13.355 16.0931C12.9871 16.4596 12.4199 16.4596 12.1365 16.0931L10.4082 14.398L8.73655 16.0931C8.56679 16.2625 8.33965 16.3469 8.08412 16.3469C7.88596 16.3469 7.65942 16.2619 7.46067 16.0931C7.12055 15.7539 7.12055 15.2169 7.46067 14.8499L9.21745 13.1831C8.58301 12.9957 7.97441 12.7303 7.40566 12.393C6.98036 12.167 6.89578 11.6024 7.12233 11.1781C7.40566 10.7545 7.91554 10.6418 8.36922 10.9244C8.98356 11.2984 9.68934 11.4963 10.409 11.4963C11.1287 11.4963 11.8345 11.2984 12.4489 10.9244C12.9025 10.6418 13.4402 10.7545 13.6952 11.1781C13.9507 11.6024 13.8365 12.1665 13.4396 12.393C12.9019 12.7323 12.2785 12.9866 11.6267 13.1843L11.6261 13.1837Z" fill="white"/>
</svg>
