<svg width="15" height="15" viewBox="0 0 15 15" fill="none" xmlns="http://www.w3.org/2000/svg">
<path d="M12.25 13.125L8.3125 9.1875C8 9.4375 7.64062 9.63542 7.23438 9.78125C6.82812 9.92708 6.39583 10 5.9375 10C4.80208 10 3.84125 9.60667 3.055 8.82C2.26875 8.03333 1.87542 7.0725 1.875 5.9375C1.875 4.80208 2.26833 3.84125 3.055 3.055C3.84167 2.26875 4.8025 1.87542 5.9375 1.875C7.07292 1.875 8.03375 2.26833 8.82 3.055C9.60625 3.84167 9.99958 4.8025 10 5.9375C10 6.39583 9.92708 6.82812 9.78125 7.23438C9.63542 7.64062 9.4375 8 9.1875 8.3125L13.125 12.25L12.25 13.125ZM5.9375 8.75C6.71875 8.75 7.38292 8.47646 7.93 7.92938C8.47708 7.38229 8.75042 6.71833 8.75 5.9375C8.75 5.15625 8.47646 4.49208 7.92938 3.945C7.38229 3.39792 6.71833 3.12458 5.9375 3.125C5.15625 3.125 4.49208 3.39854 3.945 3.94563C3.39792 4.49271 3.12458 5.15667 3.125 5.9375C3.125 6.71875 3.39854 7.38292 3.94563 7.93C4.49271 8.47708 5.15667 8.75042 5.9375 8.75Z" fill="#105FD3"/>
</svg>
