<svg width="20" height="20" viewBox="0 0 20 20" fill="none" xmlns="http://www.w3.org/2000/svg">
<path d="M16.25 2.65625H14.2188V1.875C14.2188 1.75068 14.1694 1.63145 14.0815 1.54354C13.9935 1.45564 13.8743 1.40625 13.75 1.40625C13.6257 1.40625 13.5065 1.45564 13.4185 1.54354C13.3306 1.63145 13.2812 1.75068 13.2812 1.875V2.65625H6.71875V1.875C6.71875 1.75068 6.66936 1.63145 6.58146 1.54354C6.49355 1.45564 6.37432 1.40625 6.25 1.40625C6.12568 1.40625 6.00645 1.45564 5.91854 1.54354C5.83064 1.63145 5.78125 1.75068 5.78125 1.875V2.65625H3.75C3.45992 2.65625 3.18172 2.77148 2.9766 2.9766C2.77148 3.18172 2.65625 3.45992 2.65625 3.75V16.25C2.65625 16.5401 2.77148 16.8183 2.9766 17.0234C3.18172 17.2285 3.45992 17.3438 3.75 17.3438H16.25C16.5401 17.3438 16.8183 17.2285 17.0234 17.0234C17.2285 16.8183 17.3438 16.5401 17.3438 16.25V3.75C17.3438 3.45992 17.2285 3.18172 17.0234 2.9766C16.8183 2.77148 16.5401 2.65625 16.25 2.65625ZM3.75 3.59375H5.78125V4.375C5.78125 4.49932 5.83064 4.61855 5.91854 4.70646C6.00645 4.79436 6.12568 4.84375 6.25 4.84375C6.37432 4.84375 6.49355 4.79436 6.58146 4.70646C6.66936 4.61855 6.71875 4.49932 6.71875 4.375V3.59375H13.2812V4.375C13.2812 4.49932 13.3306 4.61855 13.4185 4.70646C13.5065 4.79436 13.6257 4.84375 13.75 4.84375C13.8743 4.84375 13.9935 4.79436 14.0815 4.70646C14.1694 4.61855 14.2188 4.49932 14.2188 4.375V3.59375H16.25C16.2914 3.59375 16.3312 3.61021 16.3605 3.63951C16.3898 3.66882 16.4062 3.70856 16.4062 3.75V6.40625H3.59375V3.75C3.59375 3.70856 3.61021 3.66882 3.63951 3.63951C3.66882 3.61021 3.70856 3.59375 3.75 3.59375ZM16.25 16.4062H3.75C3.70856 16.4062 3.66882 16.3898 3.63951 16.3605C3.61021 16.3312 3.59375 16.2914 3.59375 16.25V7.34375H16.4062V16.25C16.4062 16.2914 16.3898 16.3312 16.3605 16.3605C16.3312 16.3898 16.2914 16.4062 16.25 16.4062ZM8.59375 9.375V14.375C8.59375 14.4993 8.54436 14.6185 8.45646 14.7065C8.36855 14.7944 8.24932 14.8438 8.125 14.8438C8.00068 14.8438 7.88145 14.7944 7.79354 14.7065C7.70564 14.6185 7.65625 14.4993 7.65625 14.375V10.1336L7.08437 10.4195C7.02928 10.447 6.96931 10.4634 6.90789 10.4677C6.84647 10.472 6.7848 10.4642 6.7264 10.4447C6.668 10.4252 6.61401 10.3944 6.56753 10.354C6.52104 10.3136 6.48296 10.2645 6.45547 10.2094C6.42797 10.1543 6.4116 10.0943 6.40728 10.0329C6.40296 9.97147 6.41078 9.9098 6.4303 9.8514C6.44981 9.793 6.48064 9.73901 6.52102 9.69253C6.56139 9.64604 6.61053 9.60796 6.66563 9.58047L7.91563 8.95547C7.9871 8.91978 8.06651 8.90296 8.14632 8.90659C8.22613 8.91023 8.30368 8.9342 8.37162 8.97623C8.43956 9.01826 8.49563 9.07696 8.5345 9.14675C8.57338 9.21654 8.59377 9.29511 8.59375 9.375ZM13.2477 11.6602L11.5625 13.9062H13.125C13.2493 13.9062 13.3685 13.9556 13.4565 14.0435C13.5444 14.1315 13.5938 14.2507 13.5938 14.375C13.5938 14.4993 13.5444 14.6185 13.4565 14.7065C13.3685 14.7944 13.2493 14.8438 13.125 14.8438H10.625C10.5379 14.8438 10.4526 14.8195 10.3786 14.7737C10.3045 14.728 10.2447 14.6625 10.2057 14.5846C10.1668 14.5068 10.1503 14.4196 10.1581 14.3329C10.166 14.2462 10.1978 14.1634 10.25 14.0938L12.5 11.0938C12.5648 11.0086 12.6114 10.9111 12.637 10.8072C12.6625 10.7033 12.6665 10.5953 12.6485 10.4898C12.6306 10.3843 12.5912 10.2837 12.5328 10.194C12.4744 10.1044 12.3982 10.0277 12.309 9.96877C12.2197 9.9098 12.1193 9.86979 12.0139 9.85122C11.9086 9.83265 11.8005 9.83592 11.6965 9.86082C11.5924 9.88572 11.4946 9.93173 11.4091 9.99598C11.3235 10.0602 11.2521 10.1414 11.1992 10.2344C11.1713 10.2927 11.1316 10.3445 11.0826 10.3867C11.0336 10.4289 10.9765 10.4605 10.9147 10.4796C10.8529 10.4986 10.7879 10.5047 10.7237 10.4974C10.6594 10.4901 10.5974 10.4696 10.5415 10.4372C10.4856 10.4048 10.4369 10.3611 10.3987 10.309C10.3604 10.2569 10.3334 10.1975 10.3192 10.1344C10.305 10.0713 10.3041 10.006 10.3164 9.94254C10.3287 9.87908 10.3539 9.81885 10.3906 9.76562C10.5084 9.56338 10.6663 9.38733 10.8546 9.24827C11.0428 9.1092 11.2575 9.01005 11.4854 8.95689C11.7133 8.90373 11.9497 8.89768 12.1801 8.93912C12.4104 8.98056 12.6299 9.06861 12.825 9.19787C13.0201 9.32713 13.1868 9.49488 13.3148 9.69084C13.4428 9.88679 13.5294 10.1068 13.5693 10.3374C13.6093 10.5681 13.6017 10.8044 13.547 11.032C13.4924 11.2596 13.3919 11.4736 13.2516 11.6609L13.2477 11.6602Z" fill="white"/>
</svg>
