<svg width="20" height="20" viewBox="0 0 20 20" fill="none" xmlns="http://www.w3.org/2000/svg">
<path d="M2.72917 12.7467C2.02083 11.8267 1.66667 11.3659 1.66667 10C1.66667 8.63337 2.02083 8.17421 2.72917 7.25337C4.14333 5.41671 6.515 3.33337 10 3.33337C13.485 3.33337 15.8567 5.41671 17.2708 7.25337C17.9792 8.17504 18.3333 8.63421 18.3333 10C18.3333 11.3667 17.9792 11.8259 17.2708 12.7467C15.8567 14.5834 13.485 16.6667 10 16.6667C6.515 16.6667 4.14333 14.5834 2.72917 12.7467Z" stroke="white" stroke-width="1.5625"/>
<path d="M12.5 10C12.5 10.663 12.2366 11.2989 11.7678 11.7678C11.2989 12.2366 10.663 12.5 10 12.5C9.33696 12.5 8.70107 12.2366 8.23223 11.7678C7.76339 11.2989 7.5 10.663 7.5 10C7.5 9.33696 7.76339 8.70107 8.23223 8.23223C8.70107 7.76339 9.33696 7.5 10 7.5C10.663 7.5 11.2989 7.76339 11.7678 8.23223C12.2366 8.70107 12.5 9.33696 12.5 10Z" stroke="white" stroke-width="1.5625"/>
</svg>
