<svg width="7" height="13" viewBox="0 0 7 13" fill="none" xmlns="http://www.w3.org/2000/svg">
<path d="M3.40756 6.6687C1.73655 6.6687 0.347691 5.28448 0.347691 3.64654C0.347691 1.95195 1.73655 0.567139 3.40815 0.567139C5.13654 0.567139 6.46802 1.95136 6.46802 3.64654C6.46504 4.45079 6.14206 5.22095 5.57007 5.78776C4.99808 6.35457 4.22387 6.67164 3.41761 6.66929L3.40756 6.6687ZM3.40756 2.34728C2.70012 2.34728 2.16184 2.94026 2.16184 3.64713C2.16184 4.35281 2.70012 4.88974 3.40815 4.88974C4.14458 4.88974 4.65446 4.35281 4.65446 3.64713C4.65505 2.93967 4.14458 2.34728 3.40756 2.34728ZM4.62606 9.18343L6.35504 10.8503C6.69516 11.2167 6.69516 11.7536 6.35504 12.0929C5.98712 12.4593 5.41987 12.4593 5.13654 12.0929L3.40815 10.3977L1.73655 12.0929C1.56679 12.2622 1.33965 12.3466 1.08412 12.3466C0.885962 12.3466 0.659415 12.2617 0.460669 12.0929C0.120552 11.7536 0.120552 11.2167 0.460669 10.8497L2.21745 9.18284C1.58301 8.99544 0.974414 8.73005 0.405659 8.39279C-0.0196352 8.1668 -0.104221 7.60214 0.122327 7.1779C0.405659 6.75426 0.915538 6.64156 1.36922 6.92419C1.98356 7.29816 2.68934 7.49601 3.40904 7.49601C4.12874 7.49601 4.83451 7.29816 5.44885 6.92419C5.90254 6.64156 6.44022 6.75426 6.69516 7.1779C6.95069 7.60214 6.83653 8.16621 6.43963 8.39279C5.90195 8.73206 5.2785 8.98636 4.62666 9.18402L4.62606 9.18343Z" fill="white"/>
</svg>
