<svg width="14" height="14" viewBox="0 0 14 14" fill="none" xmlns="http://www.w3.org/2000/svg">
<path d="M11.3333 2.50479C10.7221 1.88895 9.99412 1.40066 9.19176 1.06841C8.3894 0.736161 7.52874 0.566601 6.66 0.56962C3.02 0.56962 0.0533334 3.52891 0.0533334 7.15985C0.0533334 8.32362 0.36 9.45413 0.933333 10.4516L0 13.8698L3.5 12.9521C4.46667 13.4774 5.55333 13.7567 6.66 13.7567C10.3 13.7567 13.2667 10.7974 13.2667 7.1665C13.2667 5.40423 12.58 3.74836 11.3333 2.50479ZM6.66 12.6395C5.67333 12.6395 4.70667 12.3735 3.86 11.8748L3.66 11.7551L1.58 12.3004L2.13333 10.2787L2 10.0726C1.45183 9.19941 1.16076 8.19011 1.16 7.15985C1.16 4.14071 3.62667 1.68018 6.65333 1.68018C8.12 1.68018 9.5 2.25209 10.5333 3.2895C11.045 3.79755 11.4505 4.40184 11.7263 5.06735C12.0021 5.73287 12.1427 6.44637 12.14 7.1665C12.1533 10.1856 9.68667 12.6395 6.66 12.6395ZM9.67333 8.54307C9.50667 8.46327 8.69333 8.06426 8.54667 8.00441C8.39333 7.95121 8.28667 7.92461 8.17333 8.08421C8.06 8.25047 7.74667 8.62287 7.65333 8.72927C7.56 8.84232 7.46 8.85562 7.29333 8.76917C7.12667 8.68937 6.59333 8.50982 5.96667 7.95121C5.47333 7.51231 5.14667 6.97365 5.04667 6.8074C4.95333 6.64115 5.03333 6.55469 5.12 6.46824C5.19333 6.39509 5.28667 6.27539 5.36667 6.18229C5.44667 6.08919 5.48 6.01604 5.53333 5.90964C5.58667 5.79658 5.56 5.70348 5.52 5.62368C5.48 5.54388 5.14667 4.73257 5.01333 4.40007C4.88 4.08086 4.74 4.12076 4.64 4.11411H4.32C4.20667 4.11411 4.03333 4.15401 3.88 4.32027C3.73333 4.48652 3.30667 4.88552 3.30667 5.69683C3.30667 6.50814 3.9 7.29285 3.98 7.39925C4.06 7.51231 5.14667 9.17483 6.8 9.88639C7.19333 10.0593 7.5 10.159 7.74 10.2322C8.13333 10.3585 8.49333 10.3386 8.78 10.2987C9.1 10.2521 9.76 9.89969 9.89333 9.51398C10.0333 9.12828 10.0333 8.80242 9.98667 8.72927C9.94 8.65612 9.84 8.62287 9.67333 8.54307Z" fill="white"/>
</svg>
