<svg width="14" height="15" viewBox="0 0 14 15" fill="none" xmlns="http://www.w3.org/2000/svg">
<path d="M4.48922 12.4276C4.50512 12.1958 4.53831 11.9647 4.5881 11.7371C4.63167 11.5336 4.76374 10.9577 4.95736 10.123L4.9622 10.1023L5.22981 8.95179C5.28444 8.71726 5.32662 8.53516 5.35498 8.47446C5.2207 8.1648 5.15376 7.83025 5.15859 7.4929C5.15859 6.57066 5.68136 5.85605 6.35903 5.85605C6.60797 5.85191 6.84585 5.95952 7.01043 6.1499C7.175 6.34028 7.25107 6.59343 7.21926 6.83692C7.21926 7.14939 7.16048 7.38736 6.90532 8.24062C6.8659 8.37151 6.82787 8.5028 6.79122 8.63449C6.75596 8.76416 6.72553 8.88143 6.69994 8.99455C6.63356 9.26081 6.69441 9.54431 6.86383 9.75676C6.94598 9.86106 7.05205 9.94413 7.17312 9.99899C7.29418 10.0539 7.42669 10.0789 7.55948 10.072C8.5912 10.072 9.35738 8.70277 9.35738 6.93487C9.35738 5.576 8.46534 4.67653 6.98415 4.67653C6.61336 4.66278 6.24375 4.72594 5.89869 4.862C5.55363 4.99807 5.24063 5.20408 4.97949 5.46702C4.71275 5.73571 4.50231 6.05469 4.36044 6.40535C4.21857 6.75602 4.1481 7.13135 4.15315 7.50946C4.13596 7.91695 4.2611 8.31776 4.5072 8.64345C4.63236 8.74002 4.68007 8.90764 4.62821 9.05042C4.59986 9.16631 4.5314 9.43118 4.50581 9.51947C4.49857 9.56266 4.48137 9.60359 4.45557 9.63902C4.42977 9.67445 4.39608 9.70342 4.35714 9.72365C4.31934 9.74345 4.27735 9.75397 4.23465 9.75433C4.19196 9.75469 4.14979 9.74488 4.11166 9.72572C3.30952 9.39531 2.86972 8.49929 2.86972 7.35288C2.86972 5.29388 4.59225 3.50114 7.15149 3.50114C9.31935 3.50114 10.9416 5.10764 10.9416 7.04661C10.9416 9.48292 9.60563 11.257 7.69847 11.257C7.4272 11.2649 7.15788 11.2091 6.91215 11.0942C6.66642 10.9793 6.45116 10.8085 6.28366 10.5955L6.25393 10.7176L6.11079 11.3053L6.1094 11.3108C6.00844 11.7247 5.93791 12.0123 5.91025 12.1199C5.83695 12.3648 5.74429 12.6049 5.63365 12.8373C7.0096 13.1644 8.45889 12.9533 9.68365 12.2475C10.9084 11.5416 11.8156 10.3946 12.2187 9.04212C12.6218 7.68967 12.4903 6.23456 11.8511 4.97586C11.212 3.71716 10.1137 2.75051 8.78212 2.27458C7.45054 1.79864 5.98677 1.84959 4.69168 2.41695C3.39658 2.98431 2.36856 4.02497 1.8189 5.32505C1.26924 6.62513 1.2397 8.08584 1.73635 9.40697C2.233 10.7281 3.21812 11.8086 4.48922 12.4276ZM6.915 14.3652C3.09585 14.3652 0 11.277 0 7.46738C0 3.65772 3.09585 0.56958 6.915 0.56958C10.7342 0.56958 13.83 3.65772 13.83 7.46738C13.83 11.277 10.7342 14.3652 6.915 14.3652Z" fill="white"/>
</svg>
