<svg width="14" height="9" viewBox="0 0 14 9" fill="none" xmlns="http://www.w3.org/2000/svg">
<path d="M13.0817 8.64779H11.5899C11.0255 8.64779 10.8555 8.19126 9.84377 7.18024C8.95959 6.32924 8.58616 6.22343 8.3625 6.22343C8.05316 6.22343 7.9688 6.30834 7.9688 6.73351V8.0737C7.9688 8.43618 7.85108 8.64844 6.90281 8.64844C5.98284 8.58672 5.09072 8.30761 4.29993 7.83411C3.50913 7.36061 2.8423 6.70626 2.35434 5.92496C1.19574 4.48486 0.389583 2.79464 0 0.988728C0 0.765363 0.085018 0.562898 0.511416 0.562898H2.0025C2.38574 0.562898 2.52373 0.733361 2.67414 1.12719C3.3981 3.25503 4.63348 5.10595 5.13509 5.10595C5.32736 5.10595 5.41107 5.02105 5.41107 4.54232V2.35047C5.34763 1.35055 4.81594 1.2663 4.81594 0.904476C4.82267 0.809018 4.86639 0.719938 4.93783 0.656158C5.00926 0.592378 5.10278 0.558922 5.19852 0.562898H7.5424C7.86285 0.562898 7.9688 0.722257 7.9688 1.10498V4.06359C7.9688 4.38296 8.10614 4.48876 8.20293 4.48876C8.3952 4.48876 8.543 4.38296 8.8955 4.03158C9.65108 3.11134 10.2684 2.08607 10.728 0.988075C10.775 0.856246 10.8639 0.743402 10.9812 0.666754C11.0984 0.590106 11.2376 0.553863 11.3774 0.563551H12.8691C13.3164 0.563551 13.4113 0.786916 13.3164 1.10564C12.7739 2.31939 12.1025 3.47154 11.3139 4.54232C11.1531 4.78724 11.089 4.91459 11.3139 5.20196C11.4617 5.42533 11.9849 5.86161 12.3361 6.27633C12.8475 6.78576 13.272 7.37487 13.5931 8.02015C13.7212 8.43553 13.5074 8.64779 13.0817 8.64779Z" fill="white"/>
</svg>
